<svg width="704" height="161" viewBox="0 0 704 161" fill="none" xmlns="http://www.w3.org/2000/svg">
<path d="M137.59 61.05C114.33 37.79 80.3998 28.75 48.6398 37.35C40.0398 69.1 49.0798 103.03 72.3398 126.3L72.5198 126.48C104.32 117.86 129.15 93.03 137.77 61.23L137.59 61.05Z" fill="#8D98FF"/>
<path d="M137.78 61.23L112.03 68.21C96.1999 72.5 79.2899 67.99 67.6899 56.4L48.6499 37.36C80.4099 28.75 114.34 37.8 137.6 61.06L137.78 61.24V61.23Z" fill="#7A8AFF"/>
<path d="M137.78 61.23C129.16 93.03 104.33 117.86 72.5298 126.48L79.5698 100.48C83.8198 84.78 96.0798 72.52 111.78 68.27L137.78 61.22V61.23Z" fill="#607FFF"/>
<path d="M79.4998 100.74L72.5198 126.49L72.3398 126.31C49.0798 103.05 40.0398 69.12 48.6398 37.36L67.6798 56.4C79.2798 68 83.7798 84.91 79.4898 100.74H79.4998Z" fill="#A6A8FF"/>
<path d="M160.21 45.37H189.41C210.35 45.37 225.83 60.49 225.83 80.65C225.83 100.81 210.35 115.93 189.41 115.93H160.21V45.37ZM174.24 103.83H189C202.41 103.83 211.5 93.75 211.5 80.66C211.5 67.57 202.41 57.43 189 57.43H174.24V103.83Z" fill="#303030"/>
<path d="M232.84 67.81H245.26L245.51 74.37C247.96 69.36 252.62 66.81 258.03 66.81C260.88 66.81 263.29 67.56 264.29 67.91L263.29 79.38C261.99 78.93 259.88 78.28 257.33 78.28C251.67 78.28 245.71 81.33 245.71 91.25V115.89H232.84V67.81Z" fill="#303030"/>
<path d="M266.29 91.79C266.34 77.12 276.76 66.8 291.03 66.8C304.25 66.8 314.32 75.66 314.32 90.24C314.32 91.99 314.17 93.8 313.87 95.7H279.12C280.07 101.36 285.83 105.32 291.94 105.32C296.7 105.32 300.8 103.12 303.91 98.56L313.02 105.37C308.51 112.88 300.1 116.94 291.64 116.94C276.22 116.94 266.3 105.82 266.3 91.8L266.29 91.79ZM302.35 87.08C301.7 81.72 297.29 77.62 291.18 77.62C285.07 77.62 280.01 81.63 279.31 87.08H302.35Z" fill="#303030"/>
<path d="M319.31 102.11C319.31 93.05 327.62 86.73 340.39 86.73C343.7 86.73 347.4 87.28 350.51 88.38V87.28C350.51 81.97 346.2 78.12 340.09 78.12C334.53 78.12 330.52 80.82 327.37 84.18L320.01 76.82C323.27 72.61 330.38 66.8 340.49 66.8C354.56 66.8 363.33 74.26 363.33 86.28V115.88H351.11V110.52C348.51 114.43 343.55 116.88 337.49 116.88C326.57 116.88 319.31 111.02 319.31 102.11ZM331.48 101.41C331.48 105.02 334.58 107.32 339.49 107.32C345.65 107.32 350.51 103.21 350.51 97.15C348.16 96.1 345.1 95.3 341.3 95.3C335.44 95.3 331.48 97.75 331.48 101.41Z" fill="#303030"/>
<path d="M370.33 115.88V67.8H382.55L382.8 73.36C385.25 70 390.46 66.8 397.52 66.8C404.58 66.8 410.84 69.86 413.65 75.31C417.06 70.2 423.17 66.8 430.33 66.8C441.35 66.8 449.21 73.96 449.21 85.68V115.88H436.34V88.99C436.34 82.33 432.23 78.72 426.72 78.72C421.21 78.72 416.15 82.18 416.15 88.69V115.88H403.28V88.99C403.28 82.33 399.12 78.72 393.72 78.72C388.32 78.72 383.2 82.33 383.2 88.99V115.88H370.33Z" fill="#303030"/>
<path d="M456.21 115.88V45.37H469.08V72.91C471.58 69.86 476.59 66.8 483.5 66.8C494.52 66.8 502.38 74.11 502.38 85.68V115.88H489.51V88.99C489.51 82.33 485.25 78.72 479.69 78.72C474.13 78.72 469.07 82.33 469.07 88.99V115.88H456.2H456.21Z" fill="#303030"/>
<path d="M507.38 102.11C507.38 93.05 515.69 86.73 528.46 86.73C531.77 86.73 535.47 87.28 538.58 88.38V87.28C538.58 81.97 534.27 78.12 528.16 78.12C522.6 78.12 518.59 80.82 515.44 84.18L508.08 76.82C511.34 72.61 518.45 66.8 528.56 66.8C542.63 66.8 551.4 74.26 551.4 86.28V115.88H539.18V110.52C536.58 114.43 531.62 116.88 525.56 116.88C514.64 116.88 507.38 111.02 507.38 102.11ZM519.55 101.41C519.55 105.02 522.65 107.32 527.56 107.32C533.72 107.32 538.58 103.21 538.58 97.15C536.23 96.1 533.17 95.3 529.37 95.3C523.51 95.3 519.55 97.75 519.55 101.41Z" fill="#303030"/>
<path d="M556.4 91.74C556.4 77.67 567.77 66.65 582.04 66.65C591.05 66.65 599.97 71.36 604.38 80.37L594.61 86.58C591.81 81.02 586.9 78.47 582.24 78.47C574.53 78.47 569.17 84.38 569.17 91.99C569.17 99.6 574.68 105.26 582.04 105.26C587.25 105.26 591.61 102.81 594.86 96.95L604.12 103.46C599.71 112.22 590.75 116.88 581.73 116.88C567.31 116.88 556.39 105.76 556.39 91.74H556.4Z" fill="#303030"/>
<path d="M623.1 45.37V85.73L640.63 67.8H657.71L636.68 88.28L658.16 115.82H642.28L628.06 96.59L623.1 101.55V115.82H610.38V45.36H623.1V45.37Z" fill="#303030"/>
</svg>
